<?xml version="1.0" standalone="no"?>
<!DOCTYPE svg PUBLIC "-//W3C//DTD SVG 20010904//EN"
 "http://www.w3.org/TR/2001/REC-SVG-20010904/DTD/svg10.dtd">
<svg version="1.0" xmlns="http://www.w3.org/2000/svg"
 width="259.000000pt" height="194.000000pt" viewBox="0 0 259.000000 194.000000"
 preserveAspectRatio="xMidYMid meet">

<g transform="translate(0.000000,194.000000) scale(0.100000,-0.100000)"
fill="#000000" stroke="none">
<path d="M1566 1091 c-16 -3 -38 -18 -49 -33 -17 -23 -18 -30 -7 -57 9 -23 25
-35 63 -49 60 -23 77 -43 58 -66 -15 -18 -67 -21 -105 -6 -22 8 -26 7 -26 -10
0 -14 11 -22 41 -30 56 -15 120 4 133 41 16 47 1 76 -51 95 -60 22 -73 32 -73
55 0 23 37 34 85 25 28 -6 35 -4 35 8 0 9 -12 18 -27 22 -16 3 -32 7 -38 8 -5
1 -23 0 -39 -3z"/>
<path d="M943 1083 c-7 -2 -13 -13 -13 -24 0 -16 4 -17 26 -9 57 22 98 6 110
-44 l7 -29 -40 6 c-48 8 -99 -8 -113 -33 -16 -30 -11 -76 9 -94 24 -22 83 -23
115 -3 21 14 25 14 39 -1 28 -27 34 -3 28 99 -8 123 -19 139 -100 138 -31 0
-62 -3 -68 -6z m116 -133 c9 0 11 -8 6 -27 -9 -36 -33 -53 -70 -50 -26 2 -30
6 -33 35 -3 26 1 34 20 42 13 5 32 7 43 5 11 -3 26 -5 34 -5z"/>
<path d="M1140 1083 c0 -4 16 -59 35 -122 19 -62 35 -115 35 -117 0 -2 11 -4
24 -4 27 0 26 -2 52 112 10 43 20 76 22 73 2 -2 14 -44 26 -92 19 -81 23 -88
45 -88 23 0 28 10 63 120 21 66 38 121 38 123 0 1 -9 2 -20 2 -23 0 -33 -22
-58 -122 -9 -38 -19 -68 -22 -68 -3 0 -11 26 -18 58 -25 117 -31 133 -55 130
-19 -3 -25 -16 -44 -91 -12 -49 -23 -91 -26 -93 -2 -2 -15 37 -28 88 -21 79
-28 93 -47 96 -12 2 -22 0 -22 -5z"/>
</g>
</svg>
